<svg xmlns="http://www.w3.org/2000/svg" xmlns:xlink="http://www.w3.org/1999/xlink" version="1.1" x="0px" y="0px" viewBox="0 0 100 100" enable-background="new 0 0 100 100" xml:space="preserve"><path d="M28.633,74.104c-1.377,0.095-2.418,1.289-2.322,2.666c0.096,1.378,1.289,2.417,2.666,2.322  c1.379-0.096,2.418-1.289,2.322-2.667C31.203,75.049,30.01,74.01,28.633,74.104z M69.956,74.104  c-1.377,0.095-2.418,1.289-2.322,2.666c0.096,1.378,1.289,2.417,2.666,2.322c1.379-0.096,2.418-1.289,2.322-2.667  C72.526,75.049,71.333,74.01,69.956,74.104z M88.805,61.903c-1.666-4.884-7.396-7.814-18.536-9.453  c-1.94-2.883-8.978-12.342-18.268-13.145c-5.435-0.47-12.006-0.506-17.114-0.184c-0.462-3.926-2.395-8.084-5.317-11.435  c-0.083-0.734-0.479-1.426-1.156-1.846c-1.17-0.729-2.714-0.369-3.441,0.804c-0.728,1.176-0.368,2.716,0.807,3.443  c0.27,0.168,0.56,0.271,0.854,0.326c2.311,2.689,3.885,6.026,4.27,9.074c-1.006,0.131-1.891,0.281-2.58,0.453  c-7.804,1.943-9.562,6.604-10.974,10.35c-0.649,1.722-1.21,3.209-2.233,4.233c-0.1,0.084-0.447,0.297-0.7,0.453  c-1.456,0.893-4.168,2.557-4.168,5.514v11.866c0,3.44,2.8,6.24,6.24,6.24h2.351c0.933,4.651,5.047,8.167,9.968,8.167  s9.035-3.516,9.968-8.167h21.389c0.932,4.651,5.045,8.167,9.967,8.167s9.035-3.516,9.967-8.167h4.817  c0.767,0,1.884-0.284,2.851-1.636C89.914,73.956,90.42,66.638,88.805,61.903z M65.18,52.302H50.454V49.12h11.869  C63.438,50.223,64.401,51.33,65.18,52.302z M28.805,82.766c-3.4,0-6.167-2.767-6.167-6.167s2.767-6.167,6.167-6.167  s6.167,2.767,6.167,6.167S32.205,82.766,28.805,82.766z M70.128,82.766c-3.4,0-6.167-2.767-6.167-6.167s2.767-6.167,6.167-6.167  s6.167,2.767,6.167,6.167S73.528,82.766,70.128,82.766z M84.55,74.599h-4.455c-0.932-4.651-5.045-8.167-9.967-8.167  s-9.035,3.516-9.967,8.167H38.772c-0.933-4.651-5.047-8.167-9.968-8.167s-9.035,3.516-9.968,8.167h-2.351  c-1.235,0-2.24-1.005-2.24-2.24v-5.227h3.333c1.104,0,2-0.896,2-2s-0.896-2-2-2h-3.333v-2.64c0-0.719,1.47-1.62,2.259-2.104  c0.559-0.342,1.04-0.638,1.409-1.007c1.662-1.662,2.433-3.703,3.177-5.678c1.303-3.458,2.43-6.443,8.197-7.88  c3.398-0.846,13.91-1.262,22.369-0.531c1.946,0.168,3.803,0.858,5.516,1.828H35.271c-0.794,0-1.513,0.47-1.832,1.197l-3.148,7.181  c-0.271,0.619-0.213,1.332,0.156,1.897c0.37,0.565,1,0.906,1.675,0.906h36.818c9.631,1.336,14.884,3.571,16.054,6.83h-3.102  c-1.104,0-2,0.896-2,2s0.896,2,2,2h3.829C85.899,70.451,85.219,73.692,84.55,74.599z M46.454,49.12v3.182H35.183l1.395-3.182H46.454  z M53.562,59.085h-2.958c-1.104,0-2,0.896-2,2s0.896,2,2,2h2.958c1.104,0,2-0.896,2-2S54.666,59.085,53.562,59.085z M37.229,59.085  h-2.958c-1.104,0-2,0.896-2,2s0.896,2,2,2h2.958c1.104,0,2-0.896,2-2S38.333,59.085,37.229,59.085z M27.096,19.715  c-4.549,0-8.25,3.701-8.25,8.251c0,1.104,0.896,2,2,2s2-0.896,2-2c0-2.344,1.907-4.251,4.25-4.251c1.104,0,2-0.896,2-2  S28.2,19.715,27.096,19.715z M14.366,29.966c1.104,0,2-0.896,2-2c0-5.917,4.813-10.73,10.729-10.73c1.104,0,2-0.896,2-2  s-0.896-2-2-2c-8.121,0-14.729,6.607-14.729,14.73C12.366,29.07,13.262,29.966,14.366,29.966z"></path></svg>